<svg width="24" height="24" viewBox="0 0 24 24" fill="none" xmlns="http://www.w3.org/2000/svg">
<path fill-rule="evenodd" clip-rule="evenodd" d="M9 21C12.3137 21 15 18.3137 15 15C15 11.6863 12.3137 9 9 9C5.68629 9 3 11.6863 3 15C3 18.3137 5.68629 21 9 21Z" fill="white"/>
<path opacity="0.3" fill-rule="evenodd" clip-rule="evenodd" d="M8.80176 7.00242C8.8678 7.00081 8.93404 7 9.00046 7C13.4187 7 17.0005 10.5817 17.0005 15C17.0005 15.0664 16.9997 15.1327 16.998 15.1987C18.7928 14.1616 20.0005 12.2218 20.0005 10C20.0005 6.68629 17.3142 4 14.0005 4C11.7786 4 9.83884 5.20768 8.80176 7.00242Z" fill="white"/>
</svg>
