<svg width="24" height="24" viewBox="0 0 24 24" fill="none" xmlns="http://www.w3.org/2000/svg">
<path opacity="0.3" fill-rule="evenodd" clip-rule="evenodd" d="M4.80924 11C4.43755 11 4.1958 10.6088 4.36203 10.2764L4.86203 9.27639C4.94672 9.107 5.11985 9 5.30924 9H15.1912C15.5629 9 15.8046 9.39116 15.6384 9.72361L15.1384 10.7236C15.0537 10.893 14.8806 11 14.6912 11H4.80924ZM14.1912 13C14.5629 13 14.8046 13.3912 14.6384 13.7236L14.1384 14.7236C14.0537 14.893 13.8806 15 13.6912 15H4.80924C4.43755 15 4.1958 14.6088 4.36203 14.2764L4.86203 13.2764C4.94672 13.107 5.11985 13 5.30924 13H14.1912Z" fill="white"/>
<path fill-rule="evenodd" clip-rule="evenodd" d="M17.3688 7.61803C16.9768 7.08603 16.4658 6.69753 15.8358 6.45253C15.2058 6.20753 14.5898 6.08503 13.9878 6.08503C13.2178 6.08503 12.5178 6.22503 11.8878 6.50503C11.2578 6.78503 10.7153 7.17003 10.2603 7.66003C9.80533 8.15003 9.45533 8.72402 9.21033 9.38203C8.96533 10.04 8.84283 10.754 8.84283 11.524C8.84283 12.336 8.96183 13.078 9.19983 13.75C9.43783 14.422 9.77733 14.9995 10.2183 15.4825C10.6593 15.9655 11.1878 16.34 11.8038 16.606C12.4198 16.872 13.1128 17.005 13.8828 17.005C14.6808 17.005 15.3878 16.8475 16.0038 16.5325C16.6198 16.2175 17.1168 15.801 17.4948 15.283L19.6158 16.774C18.9578 17.6 18.1528 18.2405 17.2008 18.6955C16.2488 19.1505 15.1358 19.378 13.8618 19.378C12.6998 19.378 11.6323 19.1855 10.6593 18.8005C9.68632 18.4155 8.84983 17.8765 8.14983 17.1835C7.44982 16.4905 6.90383 15.6645 6.51183 14.7055C6.11983 13.7465 5.92383 12.686 5.92383 11.524C5.92383 10.334 6.13033 9.25953 6.54333 8.30053C6.95633 7.34152 7.52332 6.52603 8.24433 5.85403C8.96533 5.18202 9.81582 4.66403 10.7958 4.30003C11.7758 3.93603 12.8398 3.75403 13.9878 3.75403C14.4638 3.75403 14.9608 3.79953 15.4788 3.89053C15.9968 3.98153 16.4938 4.12153 16.9698 4.31053C17.4458 4.49953 17.8938 4.73403 18.3138 5.01403C18.7338 5.29403 19.0908 5.63003 19.3848 6.02203L17.3688 7.61803Z" fill="white"/>
</svg>
