<svg width="13" height="17" viewBox="0 0 13 17" fill="none" xmlns="http://www.w3.org/2000/svg">
<path fill-rule="evenodd" clip-rule="evenodd" d="M5.12125 10.612V12.824H6.80125C10.1892 12.824 12.8492 10.22 12.8492 6.86C12.8492 3.5 10.1892 0.895996 6.80125 0.895996C3.41325 0.895996 0.78125 3.5 0.78125 6.86H3.16125C3.16125 4.732 4.64525 3.108 6.80125 3.108C8.92925 3.108 10.4692 4.732 10.4692 6.86C10.4692 8.988 8.92925 10.612 6.80125 10.612H5.12125ZM7 14.3333C6.26362 14.3333 5.66667 14.9303 5.66667 15.6667C5.66667 16.403 6.26362 17 7 17C7.73638 17 8.33333 16.403 8.33333 15.6667C8.33333 14.9303 7.73638 14.3333 7 14.3333Z" fill="#040A13"/>
</svg>
