<svg width="32" height="29" viewBox="0 0 32 29" fill="none" xmlns="http://www.w3.org/2000/svg">
<path fill-rule="evenodd" clip-rule="evenodd" d="M10.4816 13.4892L13.906 19.4125L13.8828 23.2071L8.2373 13.4661L10.4816 13.4892Z" fill="white"/>
<path fill-rule="evenodd" clip-rule="evenodd" d="M21.9106 13.9752L25.2887 8.12129L28.5511 6.27026L22.9981 15.8956L21.9106 13.9752Z" fill="white"/>
<path fill-rule="evenodd" clip-rule="evenodd" d="M5.20592 4.3498L13.1883 18.1631L13.1189 27.0018L0 4.32666L5.20592 4.3498Z" fill="white"/>
<path fill-rule="evenodd" clip-rule="evenodd" d="M17.6311 10.736L10.5742 22.6751L13.1193 27.0019L22.8139 10.7822L17.6311 10.736Z" fill="white"/>
<path fill-rule="evenodd" clip-rule="evenodd" d="M16.3359 23.6238L24.3183 9.81044L32 5.43738L18.9273 28.1588L16.3359 23.6238Z" fill="white"/>
<path fill-rule="evenodd" clip-rule="evenodd" d="M15.619 9.67149L29.4783 9.81031L32.0003 5.43726L13.0508 5.18274L15.619 9.67149Z" fill="white"/>
<path fill-rule="evenodd" clip-rule="evenodd" d="M15.8266 12.0779L9.02423 0.0230713L4.00342 0.0462092L13.2121 16.5435L15.8266 12.0779Z" fill="white"/>
<path fill-rule="evenodd" clip-rule="evenodd" d="M26.9094 4.51176H11.4305L4.00342 0.0461537L29.4777 -0.00012207L26.9094 4.51176Z" fill="white"/>
</svg>
