<svg width="24" height="24" viewBox="0 0 24 24" fill="none" xmlns="http://www.w3.org/2000/svg">
<path d="M19.1708 19.2776L18.2392 16.4398C18.586 15.9475 18.8763 15.4129 19.1018 14.8453L24 11.921L19.0427 9.00037C18.8378 8.51397 18.5836 8.05348 18.2877 7.62393L19.1057 4.40186L15.9823 5.42716C15.6105 5.19692 15.2175 4.99805 14.8071 4.83272L11.9216 -0.000610352L9.08571 4.8129C8.62327 4.99565 8.18305 5.22132 7.7694 5.48554L4.22973 4.46677L5.28183 8.05043C5.07903 8.39089 4.90238 8.74878 4.75295 9.12039L0 11.921L4.69305 14.7229C4.8525 15.1459 5.0481 15.5508 5.27595 15.9346L4.29508 19.3427L7.57161 18.3808C8.04081 18.7012 8.54769 18.9698 9.08332 19.1815L11.9216 23.9994L14.8095 19.1621C15.2606 18.98 15.6904 18.7568 16.0945 18.4967L19.1708 19.2776ZM8.45555 15.9771C8.39085 15.8891 8.29653 15.5706 8.29653 15.5706L8.11966 15.1995C8.11966 15.1995 7.96065 14.9344 8.29653 14.9873C8.63242 15.0402 9.85203 15.5175 10.5236 15.5353C11.1954 15.553 11.5489 15.1995 11.6726 15.1642C11.7963 15.1289 12.521 14.8459 12.7332 14.8106C12.9454 14.7754 14.2534 13.9751 14.4477 12.0508C14.6422 10.1265 12.9099 8.99536 11.9201 8.97772C11.9201 8.97772 11.3014 8.96007 11.1601 9.04851C11.0187 9.13695 10.0995 9.56105 9.69301 9.6142C9.69301 9.6142 9.35713 9.93245 9.41027 10.3213C9.46321 10.7101 9.46321 12.0486 10.8773 12.051C10.8773 12.051 11.215 11.8687 11.1788 10.5471C11.1788 10.5471 12.9388 10.4008 12.9846 12.051C13.0303 13.7013 11.4075 13.9298 10.4018 13.8842C9.39612 13.8387 7.27014 12.4438 7.43024 10.2267L7.55418 9.43711L7.90772 9.03065C7.90772 9.03065 8.72086 7.38672 10.5767 6.89182C10.5767 6.89182 10.7357 6.62673 10.9303 6.62673C11.1248 6.62673 11.2838 6.83889 11.5665 6.87418C11.8493 6.90946 11.9553 6.60908 12.2204 6.62673C12.4855 6.64437 12.5032 6.83889 12.7861 6.89182C13.0689 6.94475 14.4477 7.10398 15.5612 8.62397C15.5612 8.62397 15.6142 9.01279 15.7734 9.08358C15.9324 9.15437 16.3036 9.31339 16.3567 9.43711C16.4097 9.56083 16.7811 10.8865 16.7455 11.4522C16.71 12.0179 16.551 14.6516 14.8012 15.4646L14.7659 15.9418C14.7659 15.9418 13.4579 17.1085 11.4604 16.9671C9.46321 16.8255 8.9254 16.6153 8.45555 15.9771Z" fill="white"/>
</svg>
