<svg width="24" height="24" viewBox="0 0 24 24" fill="none" xmlns="http://www.w3.org/2000/svg">
<g clip-path="url(#clip0)">
<path d="M18.8353 0.00012207C17.1063 0.204923 15.675 0.442061 14.287 1.46215C2.4651 0.630204 -0.58441 8.83547 0.0875979 14.1422C1.46541 24.3577 15.388 27.0873 19.9975 20.1862C16.3515 23.9569 10.5561 24.4743 6.12489 21.6973C1.69366 18.9202 -0.493307 13.176 2.04827 8.36217C4.59035 3.54837 9.05881 1.97709 13.9735 2.8933C15.1637 2.19855 16.5327 1.31565 17.7229 1.33182L16.8932 3.713L23.1391 14.1833C22.9241 16.9535 20.4653 17.1779 20.4653 17.1779C20.1842 16.4577 19.665 15.7365 18.0937 14.2206C16.5229 12.7046 9.5393 9.23429 10.3607 6.27987C9.38061 9.69338 15.411 13.2137 17.2375 14.9339C19.0645 16.6537 19.8952 17.8933 20.0759 18.2441C20.0759 18.2441 24.6761 17.0172 23.915 13.8702L18.0731 3.26861L18.8353 0.00012207Z" fill="white"/>
</g>
<defs>
<clipPath id="clip0">
<rect width="24" height="24" fill="white" transform="translate(0 -0.00012207)"/>
</clipPath>
</defs>
</svg>
