<svg width="24" height="24" viewBox="0 0 24 24" fill="none" xmlns="http://www.w3.org/2000/svg">
<path d="M11.8767 0.750603C9.373 0.766652 6.89779 1.65917 4.95312 3.22872L7.07793 5.69569C8.87123 4.28047 11.2875 3.70376 13.5286 4.1493C14.7602 4.38624 15.9322 4.92704 16.921 5.69569L19.0458 3.22872C17.0343 1.60561 14.4666 0.711793 11.8767 0.750603Z" fill="white"/>
<path d="M4.26105 3.83499C2.02215 5.93835 0.709418 8.9959 0.750957 12.0801C0.752285 15.2815 2.21266 18.4262 4.63791 20.5062C6.8797 22.4668 9.92863 23.4656 12.9052 23.213C16.1306 22.9728 19.192 21.25 21.0846 18.6326C22.9268 16.1453 23.6485 12.8652 23.037 9.82355C22.5875 7.49513 21.3667 5.33724 19.6306 3.73334L17.5058 6.2003C19.2179 7.81408 20.1527 10.1962 19.9765 12.5462C19.8994 13.7105 19.5612 14.8596 18.9897 15.8822L14.6595 11.6995L12.4747 6.99017L12.4714 14.1218L16.8475 18.3566C14.8974 19.8717 12.2218 20.3742 9.85085 19.7026C8.88546 19.4333 7.97129 18.9815 7.17677 18.3752L11.5826 14.1218C11.5749 11.8032 11.6095 9.30021 11.5826 6.9825L9.39456 11.6995L5.02717 15.9169C3.69478 13.591 3.66291 10.584 4.94535 8.23213C5.34626 7.47868 5.87689 6.79108 6.49247 6.2003L4.36766 3.73334C4.33212 3.76722 4.29658 3.80111 4.26105 3.83499Z" fill="white"/>
</svg>
