<svg width="24" height="14" viewBox="0 0 24 14" fill="none" xmlns="http://www.w3.org/2000/svg">
<path d="M1.56515 0.299781C1.39608 0.349327 1.26995 0.417127 1.17602 0.529257C1.04184 0.685719 1.03647 0.709188 1.04721 1.17596C1.05257 1.44456 1.05257 1.91916 1.04721 2.2399C1.04184 2.81359 1.04184 2.81359 0.931808 2.77969C0.711748 2.70668 0.18575 2.74058 0.097189 2.83445C0.0220464 2.91268 0.0220464 2.91268 0.107924 2.884C0.172332 2.86575 0.193801 2.87357 0.177699 2.91268C0.166964 2.94658 0.126709 2.97005 0.097189 2.96223C0.0623013 2.95701 0.040832 3.04568 0.040832 3.20475C0.040832 3.34556 0.0247301 3.54114 0.0113117 3.63241C-0.00747391 3.76801 0.0113117 3.82798 0.115975 3.9349C0.236739 4.06007 0.276994 4.0705 0.636605 4.0705C0.972063 4.0705 1.0311 4.08614 1.05257 4.15394C1.08209 4.26607 1.04721 9.81523 1.01769 9.89346C1.00158 9.93779 0.88887 9.95605 0.671493 9.95605C0.454116 9.95605 0.29578 9.98473 0.196485 10.0395C0.0461994 10.1282 0.040832 10.136 0.0354647 10.5167C0.02473 11.2912 0.0461994 11.3199 0.67686 11.3199H1.0982L1.08209 12.2534C1.06331 13.5677 1.10088 13.6251 2.07237 13.6772C3.51349 13.7502 7.73221 13.7789 8.4246 13.7215C8.66613 13.7033 8.88082 13.6981 9.1143 13.7033C9.43902 13.7085 9.51953 13.7033 9.57857 13.6485C9.62956 13.6094 9.64835 13.6094 9.64835 13.6485C9.64835 13.6772 9.6725 13.7033 9.69934 13.7033C9.72886 13.7033 9.75033 13.659 9.75033 13.6016C9.75033 13.5468 9.73154 13.5182 9.69934 13.5338C9.67518 13.5494 9.64835 13.539 9.64835 13.5103C9.64835 13.4217 9.76911 13.4816 9.82279 13.599C9.87377 13.7059 9.88719 13.7059 10.9982 13.7059C11.6182 13.7059 12.4689 13.7215 12.8902 13.7346C14.0254 13.7789 15.8047 13.7163 15.8047 13.6277C15.8047 13.5886 15.8288 13.5599 15.861 13.5599C15.8905 13.5599 15.9066 13.5938 15.8852 13.6329C15.8664 13.6955 15.9201 13.7059 16.2448 13.7059C16.4541 13.7111 17.6108 13.7163 18.8184 13.7215C20.0207 13.7268 20.9895 13.7163 20.9761 13.6929C20.9654 13.6746 20.9922 13.659 21.0351 13.659C21.0861 13.659 21.0995 13.6824 21.0808 13.7163C21.0217 13.8076 22.3313 13.732 22.5514 13.6251C22.9164 13.4504 22.9378 13.3773 22.9405 12.3212C22.9459 11.7997 22.9593 11.3433 22.9808 11.299C22.9996 11.2416 23.0398 11.2312 23.1203 11.2547C23.2653 11.3042 23.81 11.2781 23.912 11.226C23.9764 11.1869 23.9711 11.1817 23.8959 11.1764C23.8396 11.1764 23.81 11.153 23.8261 11.1139C23.8369 11.0852 23.8718 11.0591 23.8959 11.0643C23.9603 11.08 24.0113 10.3003 23.955 10.2038C23.8342 9.99516 23.8154 9.98473 23.3592 9.96126L22.903 9.93779L22.8922 7.00415L22.8761 4.07571H23.3216C23.7322 4.07571 23.7671 4.06528 23.8879 3.94011C23.9925 3.8332 24.014 3.77583 23.9925 3.63762C23.9764 3.54635 23.963 3.35078 23.963 3.21518C23.963 3.05089 23.9442 2.96223 23.9066 2.97266C23.8771 2.97788 23.8369 2.95441 23.8261 2.9179C23.81 2.87878 23.8315 2.86835 23.8959 2.88921C23.9764 2.9179 23.9764 2.91268 23.912 2.84488C23.8315 2.76144 23.3377 2.72232 23.1123 2.7823C22.8869 2.83967 22.8681 2.78751 22.8359 1.91133C22.7795 0.557942 22.6748 0.364973 21.9905 0.383227C21.7892 0.388442 21.6014 0.378011 21.5692 0.364973C21.5155 0.318035 20.6648 0.260665 20.2354 0.260665C20.069 0.265881 19.7792 0.265881 19.586 0.265881C19.3954 0.265881 18.4051 0.276312 17.3827 0.281527C16.3656 0.286742 15.3404 0.297173 15.1042 0.304996C14.8681 0.312819 14.5782 0.32325 14.4548 0.320642C12.5118 0.291958 10.9016 0.281527 10.8157 0.302388C10.7513 0.318035 10.7057 0.346719 10.7164 0.364973C10.7218 0.383227 10.7057 0.404088 10.6762 0.409304C10.652 0.419734 10.6252 0.393658 10.6252 0.359758C10.6252 0.315427 10.3837 0.302388 9.60004 0.302388C8.80299 0.302388 8.58025 0.318035 8.58293 0.359758C8.59367 0.393658 8.56415 0.422342 8.51853 0.422342C8.47827 0.422342 8.45412 0.404088 8.46754 0.378011C8.52658 0.28935 8.20185 0.276312 5.92074 0.276312C4.65405 0.276312 3.21292 0.265881 2.71644 0.258058C2.05895 0.242412 1.74496 0.25545 1.56515 0.299781ZM11.7389 1.61666C18.5903 1.62709 20.858 1.61145 20.858 1.57233C20.858 1.528 20.8741 1.53322 20.8983 1.57233C20.917 1.60623 21.0485 1.64013 21.1827 1.64535L21.4323 1.66099L21.4377 1.90351C21.4484 2.29205 21.5128 6.22184 21.5075 6.30529C21.4914 6.71991 21.5075 9.84653 21.5316 10.9365C21.5558 12.0266 21.5504 12.3369 21.5021 12.3656C21.4672 12.3838 21.2767 12.3942 21.0861 12.389C20.7158 12.3734 19.3632 12.3734 14.1784 12.3786C11.4893 12.3838 11.1405 12.3942 11.1646 12.4568C11.1834 12.5064 11.1592 12.5298 11.0948 12.5298C11.0304 12.5298 11.0036 12.5064 11.0251 12.4568C11.0492 12.3942 10.7352 12.389 8.50779 12.389C7.11229 12.3942 5.55576 12.4073 5.04855 12.4229C4.5467 12.4412 4.13879 12.4412 4.13879 12.4177C4.13879 12.3603 3.96435 12.3786 3.89726 12.4412C3.85163 12.4855 3.82211 12.4907 3.79796 12.4516C3.77918 12.4125 3.53765 12.3942 3.14315 12.389C2.80232 12.3838 2.50175 12.3708 2.48297 12.3551C2.45881 12.3395 2.43734 12.1569 2.43734 11.9379C2.43734 11.6119 2.42661 11.5546 2.3622 11.578C2.31121 11.5963 2.28706 11.5728 2.28706 11.5102C2.28706 11.4476 2.31121 11.4216 2.3622 11.4424C2.42661 11.4659 2.43734 11.2521 2.44271 9.70571C2.4615 3.88796 2.4615 3.95576 2.39172 3.93229C2.35147 3.91664 2.34073 3.89839 2.37562 3.87753C2.45076 3.8332 2.4615 3.24647 2.39172 3.03003C2.35683 2.93355 2.3461 2.82663 2.37294 2.79273C2.39172 2.75883 2.41319 2.48502 2.42393 2.19557C2.42929 1.89829 2.43466 1.63231 2.43466 1.59319C2.44003 1.54886 2.46955 1.53843 2.52859 1.56972C2.57421 1.58798 6.72047 1.61145 11.7389 1.61666Z" fill="#E9ECF2"/>
<path d="M18.3213 2.84212L17.2559 2.85256L17.06 3.0377C16.8936 3.19416 16.8587 3.25675 16.8346 3.48622C16.7782 3.94778 16.7782 4.59449 16.8239 5.62713C16.848 6.17736 16.8641 6.71193 16.8534 6.81885C16.8426 6.92576 16.8346 7.8202 16.8346 8.81373L16.8292 10.613L16.95 10.8034C17.0144 10.9051 17.1405 11.0172 17.2291 11.0563C17.4304 11.1398 19.4404 11.158 19.7061 11.0798C19.9503 11.0068 20.1462 10.7643 20.1758 10.4957C20.2267 10.0237 20.2053 6.4303 20.1516 6.2947L20.0952 6.16432H19.4082C18.944 6.16432 18.7024 6.18257 18.6622 6.22169C18.6219 6.2608 18.6031 6.45116 18.6031 6.74583V7.21261L18.7534 7.29605L18.9037 7.38472L18.9091 7.92972C18.9091 8.23221 18.9091 8.71724 18.9037 9.01973C18.8983 9.3457 18.9198 9.59864 18.9547 9.6508C18.9949 9.71338 19.0003 9.77596 18.9601 9.86984C18.9091 10.0002 18.9037 10.0002 18.5307 9.98197C18.104 9.96372 18.0261 9.93243 18.104 9.83594C18.1603 9.76814 18.1845 6.36772 18.1389 4.76921L18.1147 3.9869L18.4743 3.96865C19.011 3.94518 19.0057 3.93996 19.0057 4.28939C19.0057 4.45889 19.0298 4.61535 19.0647 4.64925C19.1103 4.69358 19.1103 4.70662 19.0647 4.70662C18.9547 4.70662 19.0003 4.84222 19.1211 4.8683C19.3009 4.9022 20.0067 4.87351 20.0577 4.82397C20.0765 4.8005 20.1087 4.42499 20.1221 3.9869L20.1409 3.18895L20.0013 3.05335C19.8806 2.936 19.7759 2.89689 19.4404 2.84473C19.4082 2.8343 18.901 2.8343 18.3213 2.84212ZM4.01742 2.936C3.9718 2.98033 3.95838 3.25675 3.9718 3.93214C3.9879 5.02215 3.98253 4.9387 4.04157 4.84744C4.08183 4.79007 4.09256 4.8031 4.09256 4.9048C4.09256 4.9726 4.06841 5.0404 4.03352 5.05084C3.9879 5.06648 3.97448 5.2751 3.97448 5.77577C3.96911 6.38336 3.95838 6.49549 3.88324 6.56851C3.80809 6.63631 3.79199 6.74322 3.79199 7.19175C3.79199 7.48902 3.80809 7.71589 3.82688 7.70285C3.8725 7.65852 4.04157 7.80977 4.04157 7.89843C4.04157 7.93233 4.02547 7.96101 4.00669 7.96101C3.98253 7.96101 3.96106 8.62858 3.95033 9.44479C3.94496 10.261 3.96106 10.9286 3.97985 10.9286C4.004 10.9286 4.04962 10.9833 4.07914 11.0511C4.1355 11.1685 4.15429 11.1737 4.63466 11.1737C5.37535 11.1737 5.3351 11.2623 5.32168 9.49173C5.31095 8.71724 5.30289 8.06271 5.29216 8.03664C5.2358 7.82802 5.26264 7.81759 5.97381 7.81759C6.74402 7.81759 7.03386 7.76283 7.20561 7.58811L7.32101 7.46555L7.33711 5.35593C7.34785 3.93475 7.33174 3.20981 7.29686 3.14722C7.17072 2.92296 7.03654 2.90471 5.50954 2.88906C4.45217 2.88124 4.05499 2.89167 4.01742 2.936ZM5.9926 4.10164C5.99796 4.15118 5.99796 4.67011 6.00333 5.25945C6.00333 5.84879 6.01943 6.28949 6.02748 6.24255C6.06774 6.09652 6.14288 6.15389 6.14288 6.33382C6.14288 6.47463 6.12678 6.50332 6.06237 6.47985C6.00601 6.46159 5.9926 6.47463 6.01138 6.53722C6.03553 6.61023 6.00601 6.62066 5.70544 6.60502C5.5149 6.59459 5.34583 6.55547 5.30558 6.52157C5.22507 6.44334 5.2197 6.30253 5.29484 6.30253C5.32973 6.30253 5.34047 5.96092 5.319 5.18904C5.30826 4.57624 5.30826 4.05991 5.32436 4.04688C5.34315 4.03123 5.4988 4.01819 5.67592 4.01819C5.94429 4.0208 5.9926 4.03384 5.9926 4.10164ZM8.30055 2.92035C8.21467 3.01684 8.24419 4.09642 8.33543 4.07817C8.36495 4.07295 8.39447 4.10164 8.39447 4.14075C8.39447 4.17987 8.36495 4.20855 8.33543 4.19812C8.28981 4.19291 8.26566 4.27114 8.25492 4.44585C8.24419 4.64925 8.25492 4.6988 8.30591 4.67011C8.3569 4.64143 8.3569 4.64664 8.31665 4.70401C8.23614 4.80571 8.18247 10.3158 8.25761 10.6417C8.30323 10.8164 8.3569 10.9103 8.48304 10.9964L8.64942 11.1215L9.96173 11.1033C11.4243 11.085 11.529 11.0589 11.6873 10.7617C11.7974 10.5531 11.843 8.91282 11.8161 6.0574C11.8054 4.89437 11.7974 3.73656 11.7974 3.49405C11.7974 3.21242 11.7786 3.03249 11.741 3.00641C11.7061 2.99076 11.6712 3.00119 11.6605 3.02988C11.6363 3.11332 11.5505 3.10289 11.5505 3.01423C11.5505 2.95686 11.47 2.94122 11.1238 2.94122C10.4367 2.94122 10.4877 2.77954 10.4931 5.02215C10.4985 6.0574 10.5119 7.19696 10.528 7.54639C10.5521 8.00795 10.5441 8.1931 10.5038 8.1931C10.4126 8.1931 10.4394 8.37824 10.5387 8.4304C10.5978 8.46951 10.6085 8.49298 10.5629 8.51906C10.528 8.54774 10.4985 8.78765 10.4877 9.22313C10.4716 9.7864 10.4582 9.90374 10.3831 9.97676C10.2972 10.0602 10.2891 10.0602 10.2274 9.97676C10.1523 9.88549 9.94295 9.86984 9.79266 9.94807C9.64238 10.0211 9.48672 9.88027 9.52698 9.70556C9.56187 9.55953 9.58602 5.52283 9.56187 4.05991L9.54308 3.05856L9.32839 2.94643C9.18347 2.8682 9.07881 2.83952 9.01708 2.8682C8.92316 2.90732 8.5877 2.90732 8.44278 2.86299C8.39716 2.86299 8.33543 2.88124 8.30055 2.92035ZM12.7608 2.91514C12.7044 2.98815 12.6857 4.75356 12.742 4.99086C12.7662 5.08213 12.7662 5.3116 12.7527 5.50197C12.734 5.69233 12.7366 5.86704 12.7635 5.90094C12.8279 5.97917 12.7635 6.1591 12.6722 6.1591C12.632 6.1591 12.6132 6.18257 12.6266 6.20865C12.6427 6.23733 12.6212 6.29209 12.581 6.33382C12.4897 6.42248 12.4656 7.10308 12.5515 7.15524C12.581 7.17088 12.6025 7.22825 12.6025 7.2778C12.6025 7.32735 12.6266 7.37428 12.6588 7.38472C12.7044 7.40036 12.7179 7.83584 12.7179 8.98062C12.7125 9.89592 12.734 10.5843 12.7635 10.6209C12.7876 10.6495 12.7876 10.6887 12.7688 10.6991C12.7447 10.7147 12.734 10.8164 12.7447 10.9233L12.7635 11.1215L14.0999 11.1059C16.0912 11.0902 15.9758 11.2284 15.9812 8.83459C15.9812 7.22565 15.9758 7.15263 15.8819 7.05354C15.5813 6.73801 15.5464 6.67803 15.6269 6.63631C15.8282 6.52939 15.8765 6.30513 15.8873 5.57498C15.8926 5.18643 15.9034 4.47975 15.9114 4.00515C15.9275 3.18895 15.9221 3.13419 15.8202 3.04292C15.6645 2.89167 15.431 2.86299 14.0731 2.85777C13.1258 2.85777 12.801 2.8682 12.7608 2.91514ZM14.634 4.02601C14.6635 4.07556 14.6635 4.44324 14.634 5.86965C14.6286 6.22429 14.6045 6.24516 14.2288 6.18518L14.0141 6.15649L13.9845 5.73405C13.9684 5.49936 13.955 5.2777 13.9497 5.23859C13.9497 5.19947 13.9658 4.89698 13.9845 4.56841L14.0194 3.97386H14.3093C14.4676 3.97125 14.6125 3.99472 14.634 4.02601ZM14.6125 7.44469C14.6313 7.47338 14.6528 7.84888 14.6528 8.27654C14.6528 8.7042 14.6581 9.25443 14.6581 9.50216C14.6635 9.74467 14.6528 9.96893 14.634 9.9924C14.5937 10.055 14.0731 10.0315 13.9872 9.9585C13.9309 9.91417 13.9228 9.8568 13.9523 9.72381C13.9765 9.62733 13.998 9.0771 13.998 8.4982C13.998 7.59333 14.0087 7.44208 14.0785 7.39515C14.1724 7.32735 14.5588 7.36125 14.6125 7.44469Z" fill="#E9ECF2"/>
</svg>
