<svg width="24" height="24" viewBox="0 0 24 24" fill="none" xmlns="http://www.w3.org/2000/svg">
<g clip-path="url(#clip0)">
<path d="M0 18.1065L1.62162 17.035L3.24324 18.4279L2.37838 19.3922L1.72973 18.8565L1.2973 19.0707V21.8565L1.72973 22.1779L2.59459 21.7493L3.24324 22.7136L1.62162 23.8922L0 22.9279V18.1065Z" fill="white"/>
<path d="M3.35156 23.4636L3.8921 22.9279V18.5351L5.08129 18.1065V22.3922H5.83805L6.59481 21.9636V23.4636H3.35156Z" fill="white"/>
<path d="M6.70312 23.4637L7.02745 23.1422L7.78421 19.7137L7.56799 19.6065L9.73015 18.5351L9.62204 19.178L10.9193 23.6779H9.51394L9.29772 22.8208L8.32475 22.9279L8.21664 23.5708H6.70312V23.4637ZM9.0815 21.7494L8.75718 20.3565L8.43286 21.9637L9.0815 21.7494Z" fill="white"/>
<path d="M14.3779 20.9994C14.3779 21.5351 14.3779 22.178 14.3779 22.7137L13.1887 23.7851L11.459 23.0351L12.3238 22.178L13.1887 22.6065C13.1887 22.2851 13.1887 22.0708 13.1887 21.7494L11.5671 20.8923V19.2851L12.9725 18.2137L14.7022 18.9637L13.8374 19.928L12.8644 19.4994V20.3565L14.3779 20.9994Z" fill="white"/>
<path d="M17.7295 20.9994C17.7295 21.5351 17.7295 22.178 17.7295 22.7137L16.5403 23.7851L14.8105 23.0351L15.6754 22.178L16.5403 22.6065C16.5403 22.2851 16.5403 22.0708 16.5403 21.7494L14.9187 20.8923V19.2851L16.216 18.2137L17.9457 18.9637L17.0808 19.928L16.1078 19.4994V20.3565L17.7295 20.9994Z" fill="white"/>
<path d="M18.8104 23.4637V19.3923L18.3779 19.2851L19.9996 18.6423V23.5708L18.8104 23.4637Z" fill="white"/>
<path d="M20.7568 18.2137L22.3785 17.1423L23.892 18.5351L23.1352 19.4994L22.4866 18.9637L22.1622 19.2851V22.0708L22.5947 22.3923L23.3514 21.9637L24.0001 22.928L22.4866 23.9994L20.8649 23.0351V18.2137H20.7568Z" fill="white"/>
<path d="M3.45946 16.9279C2.48649 15.4279 2.05405 13.4994 2.05405 11.7851C2.05405 9.74938 2.7027 7.82081 3.89189 6.10653L4.10811 5.89224V3.96367H6.05405L6.27027 3.74939C8 2.57082 9.94595 1.92796 12 1.92796C14.0541 1.92796 16 2.57082 17.7297 3.74939L17.9459 3.96367H19.8919V5.89224L20.1081 6.10653C21.2973 7.82081 21.9459 9.74938 21.9459 11.7851C21.9459 13.8208 21.6216 15.2137 20.6486 17.0351L22.5946 16.0708L23.027 16.4994C23.7838 14.9994 24 13.4994 24 11.7851C24 9.42795 23.3514 7.17796 22.0541 5.24939V1.92796H18.7027C16.5405 0.642246 14.2703 -0.000610352 11.8919 -0.000610352C9.51351 -0.000610352 7.24324 0.642246 5.2973 1.92796H1.94595V5.24939C0.648649 7.17796 0 9.42795 0 11.7851C0 13.3922 0.324324 14.9994 0.972973 16.4994L1.83784 16.0708L3.45946 16.9279Z" fill="white"/>
<path d="M15.2429 7.49936C15.351 7.71365 15.351 7.92794 15.351 8.14222L14.27 12.5351L11.8916 6.85651L9.6213 12.6422L8.54022 8.24936C8.43212 8.03508 8.54022 7.82079 8.64833 7.60651L8.97266 6.96365H4.97266L5.72941 7.71365C5.83752 7.82079 5.94563 8.03508 5.94563 8.14222L7.78347 16.1779C7.89157 16.4994 7.78347 16.8208 7.45914 17.0351L6.81049 17.6779L7.99968 18.2136L9.5132 17.5708L10.3781 17.6779H10.8105L10.3781 16.7136L11.7835 12.7494L13.1889 16.7136L12.9727 17.4636L14.8105 17.8922L15.6754 17.4636L16.7564 17.5708L16.2159 17.0351C15.9997 16.8208 15.8916 16.4994 15.8916 16.1779L17.7294 8.14222C17.7294 7.92794 17.8375 7.82079 17.9456 7.71365L18.7024 6.96365H14.7024L15.2429 7.49936Z" fill="white"/>
</g>
<defs>
<clipPath id="clip0">
<rect width="24" height="24" fill="white" transform="translate(0 -0.00012207)"/>
</clipPath>
</defs>
</svg>
