<svg width="20" height="20" viewBox="0 0 20 20" fill="none" xmlns="http://www.w3.org/2000/svg">
<g clip-path="url(#clip0)">
<path d="M8.21383 8.63562C7.66758 8.63562 7.23633 9.11479 7.23633 9.69937C7.23633 10.284 7.67716 10.7631 8.21383 10.7631C8.76008 10.7631 9.19133 10.284 9.19133 9.69937C9.20091 9.11479 8.76008 8.63562 8.21383 8.63562ZM11.7117 8.63562C11.1655 8.63562 10.7342 9.11479 10.7342 9.69937C10.7342 10.284 11.1751 10.7631 11.7117 10.7631C12.258 10.7631 12.6892 10.284 12.6892 9.69937C12.6892 9.11479 12.258 8.63562 11.7117 8.63562Z" fill="#8492A3"/>
<path d="M16.3687 0.595215H3.52708C2.44417 0.595215 1.5625 1.47688 1.5625 2.56938V15.526C1.5625 16.6185 2.44417 17.5002 3.52708 17.5002H14.3946L13.8867 15.7273L15.1133 16.8677L16.2729 17.941L18.3333 19.7619V2.56938C18.3333 1.47688 17.4517 0.595215 16.3687 0.595215ZM12.6696 13.111C12.6696 13.111 12.3246 12.699 12.0371 12.3348C13.2925 11.9802 13.7717 11.1944 13.7717 11.1944C13.3787 11.4531 13.005 11.6352 12.6696 11.7598C12.1904 11.961 11.7304 12.0952 11.28 12.1719C10.36 12.3444 9.51667 12.2965 8.79792 12.1623C8.25167 12.0569 7.78208 11.9035 7.38917 11.7502C7.16875 11.664 6.92917 11.5585 6.68958 11.4244C6.66083 11.4052 6.63208 11.3956 6.60333 11.3765C6.58417 11.3669 6.57458 11.3573 6.565 11.3477C6.3925 11.2519 6.29667 11.1848 6.29667 11.1848C6.29667 11.1848 6.75667 11.9515 7.97375 12.3156C7.68625 12.6798 7.33167 13.111 7.33167 13.111C5.21375 13.044 4.40875 11.6544 4.40875 11.6544C4.40875 8.56855 5.78875 6.0673 5.78875 6.0673C7.16875 5.0323 8.48167 5.06105 8.48167 5.06105L8.5775 5.17605C6.8525 5.67438 6.05708 6.43146 6.05708 6.43146C6.05708 6.43146 6.26792 6.31646 6.6225 6.15355C7.64792 5.70313 8.4625 5.57855 8.79792 5.5498C8.85542 5.54021 8.90333 5.53063 8.96083 5.53063C9.54542 5.45396 10.2067 5.4348 10.8967 5.51146C11.8071 5.61688 12.7846 5.88521 13.7812 6.43146C13.7812 6.43146 13.0242 5.71271 11.395 5.21438L11.5292 5.06105C11.5292 5.06105 12.8421 5.0323 14.2221 6.0673C14.2221 6.0673 15.6021 8.56855 15.6021 11.6544C15.6021 11.6544 14.7875 13.044 12.6696 13.111Z" fill="#8492A3"/>
</g>
<defs>
<clipPath id="clip0">
<rect width="20" height="20" fill="white" transform="translate(0 -0.00012207)"/>
</clipPath>
</defs>
</svg>
