<svg width="20" height="12" viewBox="0 0 20 12" fill="none" xmlns="http://www.w3.org/2000/svg">
<path d="M19.8939 10.5362C19.8697 10.4828 19.8471 10.4385 19.8262 10.4031C19.4792 9.76411 18.8161 8.97982 17.8372 8.05L17.8166 8.0287L17.8062 8.01826L17.7957 8.00756H17.7852C17.341 7.57459 17.0597 7.28346 16.9419 7.13441C16.7263 6.85049 16.678 6.56309 16.7959 6.2719C16.8791 6.05188 17.1917 5.58725 17.733 4.87736C18.0178 4.50114 18.2433 4.19962 18.4098 3.97244C19.6109 2.33989 20.1316 1.29666 19.9719 0.842357L19.9098 0.736193C19.8681 0.672278 19.7605 0.613807 19.5872 0.560482C19.4134 0.507269 19.1914 0.498469 18.9206 0.533932L15.9216 0.555112C15.8731 0.537511 15.8037 0.539152 15.7133 0.560482C15.623 0.581812 15.5779 0.592514 15.5779 0.592514L15.5257 0.619177L15.4843 0.651208C15.4495 0.672389 15.4114 0.709642 15.3697 0.762892C15.3282 0.815956 15.2935 0.87823 15.2658 0.949193C14.9393 1.80802 14.5681 2.60651 14.1515 3.34463C13.8946 3.78476 13.6587 4.1662 13.4432 4.48917C13.2281 4.81203 13.0476 5.0499 12.9019 5.20238C12.756 5.35501 12.6244 5.47728 12.5061 5.56965C12.388 5.66205 12.2979 5.7011 12.2355 5.68682C12.173 5.67253 12.1141 5.65836 12.0583 5.64419C11.9612 5.58028 11.883 5.49335 11.8241 5.38335C11.765 5.27334 11.7252 5.13489 11.7043 4.96809C11.6836 4.80118 11.6714 4.65761 11.6679 4.5369C11.6646 4.41634 11.6661 4.24582 11.6732 4.02581C11.6804 3.80568 11.6836 3.65675 11.6836 3.57866C11.6836 3.30891 11.6888 3.01614 11.6991 2.70029C11.7096 2.38445 11.7181 2.1342 11.7252 1.94983C11.7323 1.76528 11.7356 1.57003 11.7356 1.36419C11.7356 1.15835 11.7233 0.996924 11.6991 0.879759C11.6752 0.762743 11.6384 0.649158 11.59 0.53904C11.5413 0.429035 11.4701 0.343939 11.3766 0.283529C11.2829 0.223194 11.1664 0.175313 11.0277 0.139739C10.6598 0.0546056 10.1912 0.00855248 9.62183 0.00139279C8.33067 -0.0127774 7.50103 0.0724674 7.1331 0.257016C6.98732 0.334989 6.8554 0.441527 6.73744 0.576293C6.61245 0.732501 6.59502 0.817746 6.68525 0.831767C7.10184 0.89557 7.39676 1.0482 7.57033 1.2895L7.63288 1.41737C7.68153 1.50962 7.73011 1.67296 7.77873 1.90714C7.82728 2.14132 7.85861 2.40037 7.87239 2.68415C7.90704 3.20237 7.90704 3.64597 7.87239 4.01499C7.83764 4.38416 7.80481 4.67156 7.77348 4.8774C7.74215 5.08324 7.69532 5.25004 7.63288 5.37776C7.57033 5.50551 7.52871 5.5836 7.50785 5.61194C7.48703 5.64028 7.46967 5.65814 7.45588 5.66515C7.36565 5.7005 7.2718 5.71851 7.17468 5.71851C7.0774 5.71851 6.95945 5.66877 6.82064 5.56935C6.68186 5.46994 6.53783 5.33338 6.38855 5.15946C6.23927 4.9855 6.07091 4.74241 5.88341 4.43014C5.69605 4.11788 5.50165 3.74882 5.30032 3.32296L5.13375 3.01413C5.02962 2.81545 4.88738 2.52615 4.70688 2.1465C4.52627 1.7667 4.36663 1.39932 4.22785 1.04443C4.17237 0.895383 4.08903 0.78191 3.97798 0.703825L3.92586 0.671793C3.89121 0.643452 3.83559 0.613359 3.75929 0.58129C3.68288 0.549258 3.60315 0.526287 3.51977 0.512154L0.66657 0.533335C0.37501 0.533335 0.177183 0.600867 0.0730178 0.735745L0.0313298 0.799548C0.0105041 0.835085 0 0.891841 0 0.969964C0 1.04805 0.0208258 1.14388 0.0625138 1.25736C0.479029 2.25822 0.93198 3.22347 1.42137 4.15326C1.91075 5.08305 2.33602 5.83202 2.69692 6.3995C3.05789 6.96739 3.42582 7.50336 3.80072 8.00715C4.17562 8.51112 4.42378 8.83409 4.5452 8.97598C4.66676 9.11813 4.76224 9.22441 4.83165 9.29537L5.09203 9.55084C5.25863 9.72122 5.50329 9.92527 5.82611 10.163C6.149 10.4009 6.50646 10.6351 6.89869 10.8659C7.29099 11.0964 7.74737 11.2845 8.26808 11.43C8.78873 11.5756 9.29548 11.634 9.7884 11.6058H10.9859C11.2288 11.5844 11.4128 11.5063 11.5379 11.3715L11.5793 11.3182C11.6072 11.2758 11.6332 11.21 11.6573 11.1214C11.6817 11.0327 11.6938 10.935 11.6938 10.8287C11.6867 10.5235 11.7094 10.2485 11.7613 10.0037C11.8132 9.75889 11.8724 9.57434 11.9386 9.45005C12.0047 9.32587 12.0793 9.22109 12.1624 9.13614C12.2456 9.05101 12.3049 8.99944 12.3397 8.98169C12.3743 8.96382 12.4019 8.95171 12.4227 8.94443C12.5893 8.88768 12.7854 8.94264 13.0112 9.10959C13.2369 9.27639 13.4485 9.48234 13.6465 9.72711C13.8444 9.97211 14.0821 10.247 14.3597 10.5521C14.6375 10.8574 14.8804 11.0843 15.0886 11.2336L15.2968 11.3613C15.4358 11.4466 15.6163 11.5246 15.8385 11.5956C16.0603 11.6665 16.2546 11.6843 16.4215 11.6488L19.0872 11.6063C19.3508 11.6063 19.556 11.5617 19.7015 11.4731C19.8473 11.3844 19.9339 11.2867 19.9619 11.1803C19.9897 11.0739 19.9912 10.9532 19.9672 10.8182C19.9425 10.6835 19.9181 10.5894 19.8939 10.5362Z" fill="#8492A3"/>
</svg>
